Input #0, mov,mp4,m4a,3gp,3g2,mj2, from '/home/hbattu/projects/huberman-gpt/huberman-audio/mp3/tmpm8_cv9v4.mp4':
  Metadata:
    major_brand     : dash
    minor_version   : 0
    compatible_brands: iso6mp41
    creation_time   : 2021-08-29T21:33:17.000000Z
  Duration: 02:02:02.06, start: 0.000000, bitrate: 129 kb/s
    Stream #0:0(und): Audio: aac (LC) (mp4a / 0x6134706D), 44100 Hz, stereo, fltp, 0 kb/s (default)
    Metadata:
      creation_time   : 2021-08-29T21:33:17.000000Z
      handler_name    : ISO Media file produced by Google Inc.
Stream mapping:
  Stream #0:0 -> #0:0 (aac (native) -> mp3 (libmp3lame))
Press [q] to stop, [?] for help
[graph_0_in_0_0 @ 0x5566d115a380] tb:1/44100 samplefmt:fltp samplerate:44100 chlayout:0x3
Output #0, mp3, to '../huberman-audio/mp3/Xu1FMCxoEFc.mp3':
  Metadata:
    major_brand     : dash
    minor_version   : 0
    compatible_brands: iso6mp41
    TSSE            : Lavf58.29.100
    Stream #0:0(und): Audio: mp3 (libmp3lame), 44100 Hz, stereo, fltp, delay 1105 (default)
    Metadata:
      creation_time   : 2021-08-29T21:33:17.000000Z
      handler_name    : ISO Media file produced by Google Inc.
      encoder         : Lavc58.54.100 libmp3lame
No more output streams to write to, finishing.
size=  114408kB time=02:02:02.07 bitrate= 128.0kbits/s speed=86.6x    
[AVIOContext @ 0x5566d104a900] Statistics: 0 seeks, 170 writeouts
video:0kB audio:114408kB subtitle:0kB other streams:0kB global headers:0kB muxing overhead: 0.000295%
Input file #0 (/home/hbattu/projects/huberman-gpt/huberman-audio/mp3/tmpm8_cv9v4.mp4):
  Input stream #0:0 (audio): 315335 packets read (117153030 bytes); 315335 frames decoded (322903040 samples); 
  Total: 315335 packets (117153030 bytes) demuxed
Output file #0 (../huberman-audio/mp3/Xu1FMCxoEFc.mp3):
  Output stream #0:0 (audio): 280298 frames encoded (322903040 samples); 280299 packets muxed (117153541 bytes); 
  Total: 280299 packets (117153541 bytes) muxed
[AVIOContext @ 0x5566d1072b80] Statistics: 2 seeks, 448 writeouts
[AVIOContext @ 0x5566d1053880] Statistics: 118500178 bytes read, 0 seeks
